<svg width="207" height="86" viewBox="0 0 207 86" fill="none" xmlns="http://www.w3.org/2000/svg">
<g id="Artwork">
<g id="&#60;Group&#62;">
<g id="&#60;Group&#62;_2">
<path id="&#60;Path&#62;" d="M15.7729 48.8979C12.5599 48.8979 9.7303 47.5105 8.52542 45.3015C7.44833 43.4029 7.06496 41.7052 6.95543 37.981H0C0 41.4496 1.07709 44.48 3.15824 46.7437C5.75055 49.6464 9.65728 51.0338 15.4078 51.0338C20.2638 51.0338 24.6087 49.7742 26.9454 47.6383C29.3552 45.4293 30.7426 42.1981 30.7426 38.7295C30.7426 29.7111 23.2395 27.63 15.0245 24.417C9.27391 22.135 7.32054 20.1086 7.32054 16.5123C7.32054 8.18766 18.493 7.36615 21.6513 12.6786C22.6553 14.3763 23.0387 15.9463 23.2213 19.3602H30.0489C30.0489 11.784 24.6087 7.18359 15.6634 7.18359C5.54974 7.18359 0.76674 12.6055 0.76674 18.922C0.76674 21.8247 1.84383 24.344 3.92498 26.2973C8.52542 30.8978 18.274 32.0661 21.9069 35.699C26.197 39.8248 24.846 48.8979 15.7729 48.8979Z" fill="black"/>
<path id="&#60;Path&#62;_2" d="M57.3774 48.8979C54.1462 48.8979 51.3165 47.5105 50.1117 45.3015C49.0346 43.4029 48.6695 41.7052 48.5417 37.981H41.6045C41.6045 41.4496 42.6633 44.48 44.7445 46.7437C47.3368 49.6464 51.2435 51.0338 56.9941 51.0338C61.8501 51.0338 66.2132 49.7742 68.5317 47.6383C70.9414 45.4293 72.3289 42.1981 72.3289 38.7295C72.3289 29.7111 64.844 27.63 56.6107 24.417C50.8784 22.135 48.925 20.1086 48.925 16.5123C48.925 8.18766 60.0975 7.36615 63.2375 12.6786C64.2416 14.3763 64.625 15.9463 64.8258 19.3602H71.6352C71.6352 11.784 66.2132 7.18359 57.2496 7.18359C47.136 7.18359 42.353 12.6055 42.353 18.922C42.353 21.8247 43.4301 24.344 45.5112 26.2973C50.1117 30.8978 59.8602 32.0661 63.4931 35.699C67.7832 39.8248 66.4323 48.8979 57.3774 48.8979Z" fill="black"/>
<path id="&#60;Compound Path&#62;" fill-rule="evenodd" clip-rule="evenodd" d="M111.488 33.2361L118.681 50.3417H110.849L105.373 36.6499C97.8513 41.0495 90.7681 45.9968 86.6606 50.3417H78.9932L97.4132 7.87891H100.827L110.722 31.4288C116.052 29.3294 121.401 27.5221 126.184 26.2259L126.275 26.3537C122.077 27.9602 116.837 30.3882 111.488 33.2361ZM104.35 34.0941L96.8473 15.382L86.1129 43.8427C90.9141 40.5749 97.4132 37.1428 104.35 34.0941Z" fill="black"/>
<path id="&#60;Path&#62;_3" d="M16.0103 65.6969C13.7283 66.2081 11.1542 67.1756 8.74449 68.2709V63.78C9.43821 64.1634 10.5701 65.0579 10.8074 66.7922L10.8622 66.7557C10.8622 66.7557 11.1725 64.7476 9.93111 63.2324C11.4098 63.4697 12.6695 64.2364 13.6005 65.4961L13.6188 65.4231C13.6188 65.4231 12.5782 62.3926 9.71204 61.5528C10.4605 61.0782 11.6472 60.6401 13.1806 61.0782L13.1624 61.0234C13.1624 61.0234 11.4463 59.8916 9.51123 60.348C9.87634 59.9098 10.4788 59.4534 11.4281 59.3439L11.4098 59.3074C11.4098 59.3074 9.69379 58.9788 8.56193 60.1106C8.56193 59.4717 8.34286 58.7962 8.05077 58.3398C8.03252 58.3398 8.03252 58.3398 7.99601 58.3398C7.72217 58.7962 7.5031 59.4717 7.48485 60.1106C6.37125 58.9788 4.65521 59.3074 4.65521 59.3074L4.6187 59.3439C5.568 59.4534 6.17043 59.9098 6.53555 60.348C4.6187 59.8916 2.8844 61.0234 2.8844 61.0234L2.86615 61.0782C4.39963 60.6401 5.60451 61.0782 6.35299 61.5528C3.46859 62.3926 2.42801 65.4231 2.42801 65.4231L2.46452 65.4961C3.37731 64.2364 4.65521 63.4697 6.11567 63.2324C4.87428 64.7476 5.20288 66.7557 5.20288 66.7557L5.23939 66.7922C5.49497 65.0579 6.60857 64.1634 7.32054 63.78V68.2709C4.89253 67.1756 2.31848 66.2081 0.0365109 65.6969L0 65.7334C2.61057 66.6827 4.98381 67.8876 6.99194 69.0925C3.45033 70.8267 0.584183 72.6341 0 73.346H2.97568C3.79719 72.6888 5.58625 71.2831 8.03252 69.7314C10.4605 71.2831 12.2496 72.6888 13.0894 73.346H16.0468C15.4809 72.6341 12.5964 70.8267 9.07309 69.0925C11.0812 67.8876 13.4545 66.6827 16.0468 65.7334L16.0103 65.6969Z" fill="black"/>
<g id="&#60;Group&#62;_3">
<path id="&#60;Path&#62;_4" d="M21.3957 70.0194C21.0123 69.9099 20.4646 69.7639 20.2091 69.49C20.0448 69.2892 20.0265 68.9424 20.2091 68.7415C20.7202 68.1756 22.2719 68.3947 23.0022 68.8328L23.3855 68.1026C22.3267 67.4819 20.1178 67.3359 19.351 68.3217C19.0224 68.7598 19.0224 69.4718 19.2598 69.8916C19.6796 70.6036 20.7385 70.7132 21.8886 71.133C22.1198 71.2182 22.2841 71.3095 22.3815 71.4069C22.9839 71.9911 22.0164 72.9951 20.136 72.5022C19.8196 72.417 19.5458 72.3014 19.3145 72.1554L18.9312 72.9038C19.5518 73.269 20.4099 73.415 21.1584 73.415C21.9068 73.415 22.7649 73.269 23.2395 72.6665C23.6411 72.1736 23.6046 71.4069 23.3308 71.0052C22.9657 70.4758 22.0529 70.202 21.3957 70.0194Z" fill="black"/>
<path id="&#60;Compound Path&#62;_2" fill-rule="evenodd" clip-rule="evenodd" d="M27.8397 67.7031L30.2677 73.3441H29.2454L28.6065 71.7741H25.8864L25.2474 73.3441H24.2251L26.6531 67.7031H27.8397ZM28.2779 71.0074L27.2373 68.5611L26.1967 71.0074H28.2779Z" fill="black"/>
<path id="&#60;Path&#62;_5" d="M35.4707 70.9161C35.4707 72.048 35.0508 72.5591 33.8459 72.5591C32.6228 72.5591 32.2212 72.0115 32.2212 70.9161V67.7031H31.2354V71.1352C31.2354 71.8776 31.4483 72.4435 31.8743 72.833C32.2881 73.2224 32.9453 73.4172 33.8459 73.4172C34.7465 73.4172 35.4098 73.2224 35.8358 72.833C36.2496 72.4557 36.4565 71.8898 36.4565 71.1352V67.7031H35.4707V70.9161Z" fill="black"/>
<path id="&#60;Compound Path&#62;_3" fill-rule="evenodd" clip-rule="evenodd" d="M42.9742 68.9993C43.4671 69.839 43.4671 71.1717 42.9742 72.0297C42.39 73.0155 41.2581 73.3441 40.108 73.3441H38.0269V67.7031H40.108C41.2399 67.7031 42.39 68.0135 42.9742 68.9993ZM42.0614 69.4374C41.6597 68.7437 40.8747 68.5429 40.0715 68.5429H39.0127V72.5044H40.0715C40.8747 72.5044 41.6597 72.2853 42.0614 71.5916C42.4082 70.9892 42.4265 70.0216 42.0614 69.4374Z" fill="black"/>
<path id="&#60;Path&#62;_6" d="M44.7085 73.3441H45.6943V67.7031H44.7085V73.3441Z" fill="black"/>
<path id="&#60;Path&#62;_7" d="M51.8092 70.0194C51.4259 69.9099 50.8782 69.7639 50.6226 69.49C50.4583 69.2892 50.4401 68.9424 50.6226 68.7415C51.1338 68.1756 52.6855 68.3947 53.4157 68.8328L53.7991 68.1026C52.7403 67.4819 50.5313 67.3359 49.7646 68.3217C49.436 68.7598 49.436 69.4718 49.6733 69.8916C50.0932 70.6036 51.152 70.7132 52.3021 71.133C52.5334 71.2182 52.6977 71.3095 52.7951 71.4069C53.3975 71.9911 52.4299 72.9951 50.5496 72.5022C50.2332 72.417 49.9593 72.3014 49.7281 72.1554L49.3447 72.9038C49.9654 73.269 50.8234 73.415 51.5719 73.415C52.3204 73.415 53.1784 73.269 53.6531 72.6665C54.0547 72.1736 54.0182 71.4069 53.7444 71.0052C53.3792 70.4758 52.4665 70.202 51.8092 70.0194Z" fill="black"/>
<path id="&#60;Compound Path&#62;_4" fill-rule="evenodd" clip-rule="evenodd" d="M64.0775 67.7031L66.5055 73.3441H65.4832L64.8443 71.7741H62.1242L61.4852 73.3441H60.4629L62.8909 67.7031H64.0775ZM64.4974 71.0074L63.4751 68.5611L62.4345 71.0074H64.4974Z" fill="black"/>
<path id="&#60;Compound Path&#62;_5" fill-rule="evenodd" clip-rule="evenodd" d="M60.0977 68.5429C60.3898 69.0723 60.3715 69.8208 60.0794 70.332C59.696 70.9892 58.8928 71.2082 58.1443 71.2082H56.3735V73.3441H55.3877V67.7031H58.1261C58.8745 67.7031 59.7326 67.8857 60.0977 68.5429ZM59.1666 68.9445C58.9293 68.5977 58.4547 68.5429 58.0348 68.5429H56.3735V70.405H58.0348C58.4547 70.405 58.911 70.3319 59.1484 70.0033C59.3492 69.7295 59.3492 69.2183 59.1666 68.9445Z" fill="black"/>
<path id="&#60;Path&#62;_8" d="M70.2847 68.4491C70.9237 68.4491 71.4714 68.5952 71.9643 68.8873L72.3476 68.157C71.7087 67.7919 71.015 67.6094 70.2847 67.6094C69.1529 67.6094 68.0393 68.0293 67.4186 68.9968C66.8527 69.8913 66.8527 71.151 67.4186 72.0273C68.021 72.9948 69.1346 73.4147 70.2847 73.4147C70.9785 73.4147 71.6539 73.2687 72.3476 72.8853L71.9643 72.1551C71.4531 72.4471 70.8872 72.5932 70.2847 72.5932C69.4997 72.5932 68.7513 72.2646 68.3131 71.6074C67.8932 70.9684 67.9298 70.0191 68.3131 69.4167C68.7513 68.7595 69.4815 68.4491 70.2847 68.4491Z" fill="black"/>
<path id="&#60;Path&#62;_9" d="M73.8081 73.3441H78.0069V72.5044H74.7939V70.8431H77.7148V70.0399H74.7939V68.5429H78.0069V67.7031H73.8081V73.3441Z" fill="black"/>
<path id="&#60;Compound Path&#62;_6" fill-rule="evenodd" clip-rule="evenodd" d="M84.6517 67.7031L87.0797 73.3441H86.0574L85.4185 71.7741H82.6984L82.0594 73.3441H81.0371L83.4651 67.7031H84.6517ZM85.0899 71.0074L84.0493 68.5611L83.0087 71.0074H85.0899Z" fill="black"/>
<path id="&#60;Path&#62;_10" d="M109.973 68.4491C110.612 68.4491 111.159 68.5952 111.652 68.8873L112.036 68.157C111.397 67.7919 110.721 67.6094 109.973 67.6094C108.841 67.6094 107.727 68.0293 107.107 68.9968C106.559 69.8913 106.559 71.151 107.107 72.0273C107.727 72.9948 108.823 73.4147 109.973 73.4147C110.666 73.4147 111.342 73.2687 112.036 72.8853L111.652 72.1551C111.141 72.4471 110.575 72.5932 109.973 72.5932C109.188 72.5932 108.439 72.2646 108.001 71.6074C107.581 70.9684 107.618 70.0191 108.001 69.4167C108.439 68.7595 109.188 68.4491 109.973 68.4491Z" fill="black"/>
<path id="&#60;Path&#62;_11" d="M94.7471 73.3441H98.9459V72.5044H95.7329V70.8431H98.6538V70.0399H95.7329V68.5429H98.9459V67.7031H94.7471V73.3441Z" fill="black"/>
<path id="&#60;Path&#62;_12" d="M90.8222 71.0414H92.2826V72.2646C91.8628 72.4837 91.4246 72.5932 90.95 72.5932C90.1467 72.5932 89.3982 72.3194 88.9784 71.6621C88.5585 71.0232 88.5585 70.0009 88.9784 69.3619C89.3982 68.7047 90.165 68.4491 90.95 68.4491C91.5707 68.4491 92.2279 68.5769 92.739 68.9238L93.1407 68.157C92.4287 67.7919 91.735 67.6094 90.9317 67.6094C89.7816 67.6094 88.668 68.0475 88.0656 68.9968C87.5179 69.8731 87.4996 71.1327 88.0656 72.0273C88.668 72.9948 89.7816 73.4147 90.9135 73.4147C91.6437 73.4147 92.5747 73.2321 93.2137 72.8488V70.3295H90.8222V71.0414Z" fill="black"/>
<path id="&#60;Path&#62;_13" d="M104.423 72.3218L101.739 67.7031H100.388V73.3441H101.374V68.7254L104.039 73.3441H105.39V67.7031H104.423V72.3218Z" fill="black"/>
<path id="&#60;Path&#62;_14" d="M115.723 70.2954L114.044 67.7031H112.894L115.23 71.19V73.3441C115.23 73.3441 115.486 73.3441 115.723 73.3441C115.979 73.3441 116.234 73.3441 116.234 73.3441V71.19L118.571 67.7031H117.421L115.723 70.2954Z" fill="black"/>
</g>
<g id="&#60;Group&#62;_4">
<path id="&#60;Path&#62;_15" d="M61.9414 61.8204H62.3978V60.8711H62.1057C60.7548 60.8711 60.1523 61.5466 60.1523 62.861V64.1754H62.982V63.2078H61.0651V62.6967C61.0651 62.1125 61.3572 61.8204 61.9414 61.8204Z" fill="black"/>
<path id="&#60;Compound Path&#62;_7" fill-rule="evenodd" clip-rule="evenodd" d="M64.8808 63.2125H73.9357V59.8352H74.9032V60.2186H76.455C77.8424 60.2186 78.6274 60.9671 78.6274 62.3363V63.2125H80.1244C79.7958 62.6284 79.7775 61.7703 80.1609 61.1679C80.599 60.4924 81.384 60.2186 82.169 60.2186H83.3191V63.2125H84.7065V58.5391H85.6741V64.1801H63.895V58.5391H64.8808V63.2125ZM80.9459 62.7379C81.1649 63.0847 81.5666 63.2125 81.9682 63.2125H82.3516V61.1861H81.9682C81.5666 61.1861 81.1649 61.3139 80.9459 61.6608C80.7633 61.9529 80.7268 62.4093 80.9459 62.7379ZM74.9032 63.2125H77.6598V62.172C77.6598 61.5147 77.2217 61.1861 76.5462 61.1861H74.9032V63.2125Z" fill="black"/>
<path id="&#60;Path&#62;_16" d="M87.8095 58.5391H86.8237V64.1801H87.8095V58.5391Z" fill="black"/>
<path id="&#60;Path&#62;_17" d="M76.3631 59.4519C76.6552 59.4519 76.8925 59.2329 76.8925 58.9773C76.8925 58.7034 76.6552 58.4844 76.3631 58.4844C76.071 58.4844 75.8154 58.7034 75.8154 58.9773C75.8154 59.2329 76.071 59.4519 76.3631 59.4519Z" fill="black"/>
<path id="&#60;Path&#62;_18" d="M82.7346 58.9773C82.7346 58.7034 82.4973 58.4844 82.2052 58.4844C81.9131 58.4844 81.6758 58.7034 81.6758 58.9773C81.6758 59.2329 81.9131 59.4519 82.2052 59.4519C82.4973 59.4519 82.7346 59.2329 82.7346 58.9773Z" fill="black"/>
<path id="&#60;Compound Path&#62;_8" fill-rule="evenodd" clip-rule="evenodd" d="M107.161 64.1801H93.6697C92.9029 64.1801 92.1727 63.9062 91.7711 63.249C91.4242 62.6466 91.4059 61.7703 91.7893 61.1679C92.1362 60.6202 92.7934 60.2186 93.8157 60.2186H93.98V59.8717H94.9476V63.2125H106.193V58.5391H107.161V64.1801ZM93.98 61.1861H93.5966C93.195 61.1861 92.7934 61.3139 92.5743 61.6608C92.3918 61.9529 92.3735 62.4093 92.5743 62.7379C92.7934 63.0847 93.195 63.2125 93.5966 63.2125H93.98V61.1861Z" fill="black"/>
<path id="&#60;Path&#62;_19" d="M108.311 58.5391V64.1801H114.408V62.5188C114.408 61.2044 113.77 60.5289 112.437 60.5289H111.396L112.528 58.5391H111.36L110.301 60.5289C110.301 60.8941 110.429 61.2227 110.63 61.4965H112.565C113.094 61.4965 113.423 61.7703 113.423 62.3545V63.2125H109.279V58.5391H108.311Z" fill="black"/>
<path id="&#60;Compound Path&#62;_9" fill-rule="evenodd" clip-rule="evenodd" d="M117.421 60.2148H118.571V63.8842C118.571 65.2717 118.005 65.7098 116.818 65.7098C116.472 65.7098 116.143 65.6916 115.814 65.6003L115.614 64.5597C116.106 64.7057 117.184 64.9066 117.494 64.4684C117.549 64.3954 117.567 64.3041 117.585 64.1763H117.293C116.526 64.1763 115.814 63.9025 115.413 63.2453C115.048 62.6429 115.048 61.7666 115.431 61.1641C115.851 60.4887 116.636 60.2148 117.421 60.2148ZM117.585 61.1824H117.22C116.818 61.1824 116.417 61.3102 116.198 61.657C116.015 61.9491 115.997 62.4238 116.198 62.7341C116.417 63.0627 116.818 63.2088 117.22 63.2088H117.585V61.1824Z" fill="black"/>
<path id="&#60;Path&#62;_20" d="M93.5422 58.8106C93.5422 58.5367 93.3049 58.3359 93.0128 58.3359C92.7207 58.3359 92.4834 58.5367 92.4834 58.8106C92.4834 59.0844 92.7207 59.3035 93.0128 59.3035C93.3049 59.3035 93.5422 59.0844 93.5422 58.8106Z" fill="black"/>
<path id="&#60;Path&#62;_21" d="M94.3639 59.3035C94.656 59.3035 94.8933 59.0844 94.8933 58.8106C94.8933 58.5367 94.656 58.3359 94.3639 58.3359C94.0718 58.3359 93.8345 58.5367 93.8345 58.8106C93.8345 59.0844 94.0718 59.3035 94.3639 59.3035Z" fill="black"/>
<path id="&#60;Compound Path&#62;_10" fill-rule="evenodd" clip-rule="evenodd" d="M19.1866 63.2484C18.8397 62.646 18.8215 61.7697 19.2048 61.1673C19.5517 60.6196 20.2089 60.218 21.2312 60.218H21.3955V59.8711H22.3631V63.2119H24.3895V60.218H25.3753V64.1794H21.0852C20.3184 64.1794 19.5882 63.9056 19.1866 63.2484ZM19.9898 62.7372C20.2089 63.0841 20.6105 63.2119 21.0122 63.2119H21.3955V61.1855H21.0122C20.6105 61.1855 20.2089 61.3133 19.9898 61.6602C19.8073 61.9522 19.789 62.4086 19.9898 62.7372Z" fill="black"/>
<path id="&#60;Path&#62;_22" d="M25.9956 63.2088V64.1763H29.3547V62.2047C29.3547 61.5353 29.1964 61.0364 28.88 60.7078C28.5514 60.3791 28.0585 60.2148 27.4013 60.2148H27.237V61.1824H27.5473C27.8394 61.1824 28.0646 61.2615 28.2228 61.4197C28.3688 61.5658 28.4419 61.797 28.4419 62.1134V63.2088H25.9956Z" fill="black"/>
<path id="&#60;Compound Path&#62;_11" fill-rule="evenodd" clip-rule="evenodd" d="M53.3614 58.5391H54.3289V64.1801H52.6311C52.3877 64.1801 52.1747 64.1436 51.9922 64.0705C51.7183 63.961 51.5358 63.7967 51.408 63.5776C51.0611 64.0888 50.4952 64.2531 49.8745 64.2531C49.2721 64.2531 48.6879 64.0158 48.4323 63.4864C48.1037 63.9793 47.5743 64.1801 46.9901 64.1801H33.5174C33.4444 65.3302 32.8967 65.7136 31.7648 65.7136C31.4362 65.7136 31.0894 65.6953 30.779 65.604L30.5782 64.5634C30.9616 64.6912 31.345 64.746 31.7283 64.746C32.1847 64.746 32.4951 64.6365 32.5316 64.1801H32.2577C31.491 64.1801 30.7608 63.9062 30.3774 63.249C30.0123 62.6466 29.994 61.7703 30.3774 61.1679C30.7973 60.4924 31.5823 60.2186 32.3855 60.2186H33.5356V63.2125H35.3247L34.4849 60.9671C35.1056 60.4194 35.8359 60.0543 36.6756 60.0543C37.3328 60.0543 38.0448 60.2734 38.8481 60.9671L38.0265 63.2125H45.3836V60.6932H46.3694V63.2125H46.9901C47.5925 63.2125 48.0124 62.9022 48.0124 62.245V60.6932H48.98V62.3728C48.98 62.9569 49.3633 63.2855 49.8745 63.2855C50.4039 63.2855 50.7508 62.957 50.7508 62.3363V60.1821H51.7366V62.1354C51.7366 62.3667 51.767 62.5614 51.8279 62.7196C51.9009 62.8778 52.0043 62.9995 52.1382 63.0847C52.2721 63.1699 52.4364 63.2125 52.6311 63.2125H53.3614V58.5391ZM32.5498 61.1861H32.1665C31.7831 61.1861 31.3632 61.3139 31.1624 61.6425C30.9616 61.9529 30.9433 62.4275 31.1624 62.7379C31.3815 63.0665 31.7648 63.2125 32.1665 63.2125H32.5498V61.1861ZM37.771 61.46C37.4606 61.2044 37.0773 61.0401 36.6756 61.0401C36.2557 61.0401 35.8724 61.2044 35.562 61.46L36.2375 63.2125H37.0772L37.771 61.46Z" fill="black"/>
<path id="&#60;Path&#62;_23" d="M56.4466 64.1801V58.5391H55.479V64.1801H56.4466Z" fill="black"/>
<path id="&#60;Path&#62;_24" d="M19.8984 58.8106C19.8984 59.0844 20.1358 59.3035 20.4279 59.3035C20.7199 59.3035 20.9573 59.0844 20.9573 58.8106C20.9573 58.5367 20.7199 58.3359 20.4279 58.3359C20.1358 58.3359 19.8984 58.5367 19.8984 58.8106Z" fill="black"/>
<path id="&#60;Path&#62;_25" d="M21.2495 58.8106C21.2495 59.0844 21.4868 59.3035 21.7789 59.3035C22.071 59.3035 22.3083 59.0844 22.3083 58.8106C22.3083 58.5367 22.071 58.3359 21.7789 58.3359C21.4868 58.3359 21.2495 58.5367 21.2495 58.8106Z" fill="black"/>
<path id="&#60;Path&#62;_26" d="M23.5133 64.8906C23.2212 64.8906 22.9839 65.1097 22.9839 65.3835C22.9839 65.6574 23.2212 65.8582 23.5133 65.8582C23.8054 65.8582 24.061 65.6574 24.061 65.3835C24.061 65.1097 23.8054 64.8906 23.5133 64.8906Z" fill="black"/>
<path id="&#60;Path&#62;_27" d="M24.8644 64.8906C24.5723 64.8906 24.335 65.1097 24.335 65.3835C24.335 65.6574 24.5723 65.8582 24.8644 65.8582C25.1565 65.8582 25.3938 65.6574 25.3938 65.3835C25.3938 65.1097 25.1565 64.8906 24.8644 64.8906Z" fill="black"/>
</g>
</g>
<g id="&#60;Group&#62;_5">
<path id="&#60;Path&#62;_28" d="M197.143 42.9825C196.96 43.512 196.741 44.0961 196.449 44.6803C191.976 53.6621 181.863 63.2099 174.086 68.9604C166.345 74.6745 158.222 78.8185 152.325 80.8266C149.714 81.7212 146.94 82.4149 144.219 82.78C141.171 83.1816 136.223 83.2912 133.668 81.6664C132.627 81.0092 131.349 79.8408 131.568 78.4717C131.678 77.8144 132.207 77.0112 132.791 76.7191C133.339 76.4635 133.704 76.6278 133.85 76.7374C133.923 76.7739 133.941 76.8104 133.941 76.8104L133.96 76.7921C134.964 78.0335 136.68 78.6907 139.053 78.6907C147.213 78.6907 160.686 71.1694 160.814 71.0963C174.396 63.9218 183.506 56.4187 183.597 56.3457C186.536 54.0272 196.267 45.9217 197.453 38.875C197.508 38.4916 197.526 37.8709 197.216 37.0859H197.234C197.234 37.0859 198.275 39.4044 197.179 42.8547C197.167 42.8913 197.155 42.9339 197.143 42.9825Z" fill="url(#paint0_radial_8084_22509)"/>
<path id="&#60;Path&#62;_29" d="M170.325 21.9556C167.66 21.9556 165.487 21.9008 163.461 21.8095C159.755 21.6452 156.469 21.4079 153.439 21.061C142.303 19.8197 135.658 17.2639 133.668 13.4667C132.846 11.8784 132.846 10.2902 133.649 8.72018C135.347 5.37938 140.295 2.98788 144.293 2.36719L144.311 2.4037C143.252 2.69579 142.321 3.09742 141.426 3.49904L140.897 3.73637C138.907 4.59439 134.343 7.07716 135.311 11.4585C136.424 16.4606 143.124 17.7568 169.102 20.7872C170.21 20.9089 171.323 21.0306 172.443 21.1523C174.378 21.3714 176.386 21.5905 178.358 21.846V21.9008C177.335 21.9008 176.313 21.9069 175.291 21.9191C173.648 21.9373 171.987 21.9556 170.325 21.9556Z" fill="url(#paint1_radial_8084_22509)"/>
<path id="&#60;Path&#62;_30" d="M186.244 64.8528C187.741 64.0678 189.165 63.2645 190.407 62.4248C191.958 60.9643 192.78 60.015 193.09 59.6682C193.437 59.3031 198.822 53.4247 201.689 48.5687C204.591 43.6944 206.253 37.0311 203.733 31.7552C203.332 30.8789 202.145 28.67 201.378 27.7937C200.648 26.9722 199.991 26.0229 199.041 25.4935C193.492 22.3535 186.171 20.4731 181.041 19.5786C175.985 18.7023 170.745 18.0999 164.246 17.4609C166.181 18.0451 170.307 19.3595 174.98 21.1486C176.697 21.3859 178.248 21.605 179.563 21.8423C179.563 21.8423 193.236 24.1608 198.676 30.0026C198.968 30.313 202.127 33.4712 199.954 35.8262C199.261 36.5929 197.508 37.1771 196.979 36.5564C197.076 36.739 197.161 36.9155 197.234 37.0858C197.234 37.0858 198.275 39.4043 197.179 42.8546C196.997 43.4388 196.76 44.0413 196.449 44.6802C191.977 53.662 181.863 63.2098 174.086 68.9603C173.344 69.508 172.601 70.0435 171.859 70.5668C175.364 69.435 181.297 67.3538 186.244 64.8528Z" fill="url(#paint2_linear_8084_22509)"/>
<path id="&#60;Path&#62;_31" d="M195.536 23.2171C191.593 21.4646 187.449 20.3327 184.127 19.6208C175.181 17.7039 151.358 16.1157 147.013 15.495C139.911 14.4909 138.925 12.7931 138.925 11.3692C138.944 7.4807 150.043 4.13991 154.224 3.73828C149.879 3.93909 138.725 7.26163 138.706 11.3692C138.688 13.1217 139.637 15.1664 150.737 16.2069C164.301 17.4848 172.899 18.1603 181.041 19.5842C189.165 21.0082 202.747 24.8601 206.161 32.3632C206.161 32.3632 204.591 27.0508 195.536 23.2171Z" fill="black"/>
<g id="&#60;Group&#62;_6">
<path id="&#60;Compound Path&#62;_12" fill-rule="evenodd" clip-rule="evenodd" d="M199.954 35.8239C199.26 36.5907 197.508 37.1749 196.978 36.5542C196.558 36.0978 195.226 32.6109 182.301 29.2336C178.157 28.1383 170.142 25.9476 166.016 25.0896C147.761 21.2559 135.621 19.5033 132.7 13.8075C132.17 12.7852 131.568 11.1787 132.444 8.86024C133.394 6.26793 137.793 2.83585 148.436 1.13807C148.436 1.13807 156.104 -0.158088 163.771 1.33888C163.771 1.33888 166.601 1.94132 168.956 3.01841C169.832 3.42003 170.653 3.89468 171.219 4.4241C171.548 4.73444 172.862 5.8663 172.315 8.31257C171.584 11.6169 170.106 14.0266 168.39 17.4952L167.185 17.3857C167.185 17.3857 169.211 13.7163 170.033 11.8359C172.333 7.23548 171.384 5.81153 170.288 5.02654C167.13 2.79934 162.712 2.68981 159.043 2.45248C159.043 2.45248 152.252 2.23341 146.757 3.56608C141.28 4.88049 133.576 8.96977 136.771 13.4242C137.957 15.0854 142.12 16.3633 147.505 17.4222C157.637 19.3938 172.132 20.5439 179.562 21.8401C179.562 21.8401 193.236 24.1585 198.676 30.0004C198.968 30.3107 202.126 33.4689 199.954 35.8239ZM178.357 21.8583C175.272 21.4567 172.187 21.1646 169.102 20.7995C143.872 17.8603 136.442 16.6189 135.292 11.4708C134.179 6.41397 140.385 3.93119 140.97 3.67561C141.992 3.21922 143.069 2.70806 144.292 2.37946C138.286 3.32875 130.892 8.02048 133.686 13.4424C136.442 18.7183 147.523 20.3796 153.438 21.0368C156.761 21.4019 160.102 21.6392 163.461 21.7853C168.426 22.0044 173.374 21.8948 178.357 21.8583Z" fill="url(#paint3_radial_8084_22509)"/>
</g>
<g id="&#60;Group&#62;_7">
<g id="&#60;Group&#62;_8">
<path id="&#60;Compound Path&#62;_13" d="M201.377 27.8026C202.144 28.6789 203.33 30.8878 203.732 31.7641C206.251 37.04 204.59 43.7033 201.687 48.5776C198.821 53.4336 193.436 59.312 193.089 59.6771C192.176 60.6447 187.375 66.5047 173.08 74.4642C163.022 79.9592 147.176 87.6266 135.711 85.2351C131.932 84.4136 129.175 82.515 127.916 79.7219C126.985 77.6955 127.678 74.8659 128.829 72.1823C130.161 69.1336 132.096 66.2309 132.954 64.8435C139.271 54.675 151.028 41.4761 162.492 25.6849L162.255 25.6484C141.37 53.9083 126.802 66.596 126.784 76.5819C126.784 77.7137 127.149 83.5738 135.437 85.4177C143.287 87.152 153.127 83.9755 160.557 80.872C160.594 80.872 163.916 79.7219 173.19 74.665C179.726 71.0322 185.221 67.6001 191.409 62.4702C198.803 56.3363 207 47.9204 207 38.8291C207 34.4112 205.265 30.4314 201.377 27.8026ZM195.024 58.7461C194.093 59.5858 193.125 60.4804 192.048 61.4844C192.085 61.4662 198.602 54.1639 200.555 51.5168C205.813 44.4153 207.492 37.5512 204.499 31.472C205.484 32.6404 212.531 42.5715 195.024 58.7461Z" fill="black"/>
</g>
</g>
<path id="&#60;Path&#62;_32" d="M162.786 25.7344L163.333 25.8622L143.234 55.619C140.003 60.3837 136.844 64.3087 138.068 61.9172C141.025 56.1301 158.66 31.3389 162.786 25.7344Z" fill="url(#paint4_linear_8084_22509)"/>
<path id="&#60;Path&#62;_33" d="M152.763 41.5262C152.8 41.4654 152.824 41.4228 152.836 41.3984L145.589 52.1328C141.463 58.7596 136.461 66.9747 135.037 69.8774C133.558 72.8713 133.376 74.35 133.394 75.0255C133.412 75.7009 133.631 76.3582 133.942 76.8145L133.96 76.7963C133.905 76.705 133.796 76.4494 133.85 76.3034C133.863 76.2669 133.881 76.2486 133.905 76.2486C133.917 76.2364 133.929 76.2304 133.942 76.2304C134.033 76.2304 134.124 76.3216 134.161 76.3764V76.3582C133.942 75.9748 133.467 75.2445 133.942 73.4007C134.051 72.7618 134.927 70.7901 135.311 69.9869C139.564 62.3012 151.522 43.4066 152.763 41.5262Z" fill="url(#paint5_linear_8084_22509)"/>
<path id="&#60;Compound Path&#62;_14" d="M148.345 45.0283C151.084 41.0485 153.092 38.1276 153.11 38.1094C144.986 48.4969 137.538 57.4604 132.956 64.8357C132.098 66.2232 130.163 69.1258 128.83 72.1745C129.852 71.1887 132.006 68.8885 132.864 67.6289C132.864 67.6289 142.357 53.7728 148.345 45.0283Z" fill="url(#paint6_linear_8084_22509)"/>
<path id="&#60;Path&#62;_34" d="M194.605 58.8849C193.93 59.5056 193.273 60.1081 192.542 60.9478L192.05 61.4772C192.561 61.0026 193.048 60.5523 193.51 60.1263C194.039 59.6334 194.532 59.177 195.025 58.7389C212.532 42.5643 205.486 32.6332 204.5 31.4648C204.756 31.9882 204.975 32.5115 205.157 33.0348C205.906 34.6413 206.563 37.0694 206.216 40.1363C205.175 49.3554 194.605 58.8849 194.605 58.8849Z" fill="url(#paint7_linear_8084_22509)"/>
<path id="&#60;Path&#62;_35" d="M139.619 13.429H136.771C135.53 11.6947 135.931 10.0334 137.191 8.55469C137.191 8.55469 134.781 11.3843 139.619 13.429Z" fill="url(#paint8_linear_8084_22509)"/>
<path id="&#60;Path&#62;_36" d="M139.619 13.429H136.771C135.53 11.6947 135.931 10.0334 137.191 8.55469C137.191 8.55469 134.781 11.3843 139.619 13.429Z" fill="url(#paint9_radial_8084_22509)"/>
<path id="&#60;Path&#62;_37" d="M139.619 13.429H136.771C135.53 11.6947 135.931 10.0334 137.191 8.55469C137.191 8.55469 134.781 11.3843 139.619 13.429Z" fill="url(#paint10_linear_8084_22509)"/>
<path id="&#60;Path&#62;_38" d="M152.325 18.2492C150.646 17.9936 149.039 17.7198 147.506 17.4277C142.12 16.3689 137.958 15.091 136.771 13.4297H139.619C139.619 13.4297 141.116 14.7989 144.676 16.0585C148.254 17.3182 152.325 18.2492 152.325 18.2492Z" fill="url(#paint11_linear_8084_22509)"/>
<path id="&#60;Path&#62;_39" d="M152.325 18.2492C150.646 17.9936 149.039 17.7198 147.506 17.4277C142.12 16.3689 137.958 15.091 136.771 13.4297H139.619C139.619 13.4297 141.116 14.7989 144.676 16.0585C148.254 17.3182 152.325 18.2492 152.325 18.2492Z" fill="url(#paint12_linear_8084_22509)"/>
<g id="&#60;Group&#62;_9">
<path id="&#60;Path&#62;_40" d="M157.619 0.0649457C156.213 -0.00807722 147.962 -0.354936 141.481 1.79924C141.481 1.79924 134.726 3.73435 132.225 7.29421C132.225 7.29421 129.158 11.347 132.28 15.5458C132.28 15.5458 134.945 19.5621 143.27 21.7162C147.14 22.7203 154.169 24.0347 161.69 25.5317C172.333 27.6311 183.98 30.0226 189.128 32.195C189.128 32.195 196.723 34.8603 196.723 38.0551C196.723 39.0227 196.522 40.0085 196.157 40.903C192.944 48.8807 179.854 58.2459 176.422 60.6922C166.181 67.9397 160.229 70.8424 160.229 70.8424C142.54 80.2623 135.475 78.528 134.16 76.3556C134.16 76.3556 134.032 76.173 133.905 76.2095C133.759 76.2643 133.795 76.5564 133.941 76.7937C139.144 83.2928 160.832 71.1162 160.832 71.1162C174.56 63.8504 183.615 56.3656 183.615 56.3656C185.55 54.8504 196.211 46.3067 197.471 38.8766C197.581 38.2742 197.471 37.4709 196.978 36.5581C196.577 36.1017 195.28 32.7609 183.049 29.4384C173.958 27.1747 165.925 25.5864 156.524 23.8887C153.438 23.3227 147.98 22.2639 143.452 21.0043C130.436 17.3714 129.943 11.1279 132.645 7.36723C137.519 0.521339 158.623 -2.18051 168.956 3.02237C169.832 3.424 170.653 3.89865 171.219 4.42806C170.83 4.06295 170.404 3.72826 169.941 3.424C167.696 1.90877 163.735 0.30227 157.838 0.0649457C157.838 0.0649457 157.765 0.0649457 157.619 0.0649457Z" fill="url(#paint13_radial_8084_22509)"/>
</g>
</g>
</g>
</g>
<defs>
<radialGradient id="paint0_radial_8084_22509" cx="0" cy="0" r="1" gradientUnits="userSpaceOnUse" gradientTransform="translate(163.074 71.9357) rotate(-127) scale(28.4713)">
<stop stop-opacity="0.72"/>
<stop offset="1"/>
</radialGradient>
<radialGradient id="paint1_radial_8084_22509" cx="0" cy="0" r="1" gradientUnits="userSpaceOnUse" gradientTransform="translate(140.739 13.4982) scale(9.25127 9.25127)">
<stop stop-opacity="0.7"/>
<stop offset="1"/>
</radialGradient>
<linearGradient id="paint2_linear_8084_22509" x1="223.587" y1="20.68" x2="218.828" y2="75.0678" gradientUnits="userSpaceOnUse">
<stop offset="0.04" stop-opacity="0.01"/>
<stop offset="0.1" stop-opacity="0"/>
<stop offset="0.42" stop-opacity="0.12"/>
<stop offset="0.75" stop-opacity="0"/>
</linearGradient>
<radialGradient id="paint3_radial_8084_22509" cx="0" cy="0" r="1" gradientUnits="userSpaceOnUse" gradientTransform="translate(197.875 35.2383) rotate(-140) scale(22.963)">
<stop stop-opacity="0.8"/>
<stop offset="1"/>
</radialGradient>
<linearGradient id="paint4_linear_8084_22509" x1="112.198" y1="46.026" x2="121.36" y2="30.1568" gradientUnits="userSpaceOnUse">
<stop stop-opacity="0.3"/>
<stop offset="1"/>
</linearGradient>
<linearGradient id="paint5_linear_8084_22509" x1="176.31" y1="74.2432" x2="169.068" y2="94.1426" gradientUnits="userSpaceOnUse">
<stop stop-opacity="0.3"/>
<stop offset="0.45" stop-opacity="0.3"/>
<stop offset="1"/>
</linearGradient>
<linearGradient id="paint6_linear_8084_22509" x1="176.6" y1="55.4739" x2="152.355" y2="90.0998" gradientUnits="userSpaceOnUse">
<stop stop-opacity="0"/>
<stop offset="0.5" stop-opacity="0.9"/>
<stop offset="0.9" stop-opacity="0"/>
</linearGradient>
<linearGradient id="paint7_linear_8084_22509" x1="233.123" y1="56.2335" x2="223.756" y2="72.458" gradientUnits="userSpaceOnUse">
<stop stop-opacity="0.15"/>
<stop offset="0.5" stop-opacity="0.7"/>
<stop offset="1" stop-opacity="0.15"/>
</linearGradient>
<linearGradient id="paint8_linear_8084_22509" x1="131.072" y1="12.0072" x2="135.63" y2="7.44949" gradientUnits="userSpaceOnUse">
<stop stop-opacity="0.5"/>
<stop offset="0.9" stop-opacity="0"/>
</linearGradient>
<radialGradient id="paint9_radial_8084_22509" cx="0" cy="0" r="1" gradientUnits="userSpaceOnUse" gradientTransform="translate(136.14 12.8731) rotate(-55.0001) scale(5.41106 5.41106)">
<stop stop-opacity="0.4"/>
<stop offset="0.65" stop-opacity="0"/>
</radialGradient>
<linearGradient id="paint10_linear_8084_22509" x1="134.521" y1="13.5909" x2="134.521" y2="13.2026" gradientUnits="userSpaceOnUse">
<stop stop-opacity="0.3"/>
<stop offset="1" stop-opacity="0"/>
</linearGradient>
<linearGradient id="paint11_linear_8084_22509" x1="137.958" y1="27.1742" x2="144.019" y2="12.8952" gradientUnits="userSpaceOnUse">
<stop stop-opacity="0.1"/>
<stop offset="0.45" stop-opacity="0.2"/>
<stop offset="1" stop-opacity="0.05"/>
</linearGradient>
<linearGradient id="paint12_linear_8084_22509" x1="144.995" y1="11.7149" x2="145.183" y2="12.7818" gradientUnits="userSpaceOnUse">
<stop stop-opacity="0.1"/>
<stop offset="0.35" stop-opacity="0.2"/>
<stop offset="1" stop-opacity="0"/>
</linearGradient>
<radialGradient id="paint13_radial_8084_22509" cx="0" cy="0" r="1" gradientUnits="userSpaceOnUse" gradientTransform="translate(164.194 39.3494) scale(36.459 36.459)">
<stop stop-opacity="0.7"/>
<stop offset="0.5"/>
<stop offset="1"/>
</radialGradient>
</defs>
</svg>
