<svg width="174" height="70" viewBox="0 0 174 70" fill="none" xmlns="http://www.w3.org/2000/svg">
<path d="M54.7156 37.0934H51.2657C51.2987 36.8236 51.2682 36.55 51.1764 36.2938C51.0847 36.0376 50.9342 35.8058 50.7368 35.6167C50.5395 35.4275 50.3005 35.286 50.0386 35.2033C49.7767 35.1205 49.4991 35.0988 49.2273 35.1397C48.1299 35.1397 47.5029 35.7533 47.5029 36.605C47.5029 39.5675 54.841 40.3615 54.841 45.0334C54.841 47.7517 52.9913 49.644 49.3216 49.644C45.7774 49.644 43.5825 47.7812 43.5825 44.6641H47.0945C47.0692 44.9567 47.11 45.2512 47.2139 45.5263C47.3178 45.8014 47.4823 46.0503 47.6954 46.2548C47.9086 46.4594 48.165 46.6146 48.4463 46.7092C48.7275 46.8038 49.0265 46.8355 49.3216 46.8018C50.5755 46.8018 51.3601 46.16 51.3601 45.0924C51.3601 42.6821 43.9276 41.3077 43.9276 36.7584C43.9276 34.1322 45.7463 32.2693 49.1329 32.2693C52.7083 32.2693 54.7156 33.8573 54.7156 37.0934Z" fill="#141416"/>
<path d="M56.5344 35.476V32.6976C58.5095 32.6976 59.1054 31.9613 59.1054 29.5216H61.5212V32.4841H64.2797V35.4453H61.5212V44.118C61.5212 45.7366 61.7695 46.5 63.6217 46.5C63.8534 46.5044 64.0848 46.4838 64.312 46.4386V49.4305C64.312 49.4305 63.7161 49.4919 62.9005 49.4919C58.4785 49.4919 57.977 46.9884 57.977 43.0797V35.4122H56.5344V35.476Z" fill="#141416"/>
<path d="M70.9288 49.6441C68.0561 49.6121 66.5378 47.8168 66.5378 44.453V37.4579C66.4329 36.0533 66.8682 34.6613 67.7569 33.5603C68.1693 33.1495 68.6654 32.8301 69.2123 32.6234C69.7592 32.4166 70.3443 32.3273 70.9288 32.3614C71.5977 32.3266 72.2646 32.4596 72.8675 32.7479C73.4705 33.0363 73.9899 33.4707 74.3775 34.0107V32.5454H77.671V49.4011H74.3775V47.9346C73.9977 48.4865 73.4815 48.9333 72.8779 49.2325C72.2743 49.5317 71.6034 49.6734 70.9288 49.6441ZM72.1243 35.3238C70.7724 35.3238 70.0858 36.1829 70.0858 37.8887V44.0247C70.0858 45.7501 70.7525 46.5895 72.1243 46.5895C73.4898 46.5576 74.1627 45.7195 74.1627 44.0247V37.5524C74.2033 37.2686 74.1803 36.9795 74.0954 36.7054C74.0105 36.4313 73.8656 36.1791 73.6712 35.9665C73.4767 35.7539 73.2373 35.5861 72.97 35.475C72.7027 35.364 72.414 35.3124 72.1243 35.3238Z" fill="#141416"/>
<path d="M87.6743 35.6589H87.2038C84.6639 35.6589 84.0047 36.9106 84.0047 39.6939V49.3741H80.4927V32.5135H83.8172V34.1936C84.099 33.2769 85.2908 32.3307 87.3913 32.3307H87.6731L87.6743 35.6589Z" fill="#141416"/>
<path d="M89.7439 35.476V32.6976C91.719 32.6976 92.3149 31.9613 92.3149 29.5216H94.7307V32.4841H97.4892V35.4453H94.7307V44.118C94.7307 45.7366 94.979 46.5 96.8312 46.5C97.0629 46.5044 97.2943 46.4838 97.5214 46.4386V49.4305C97.5214 49.4305 96.9256 49.4919 96.1099 49.4919C91.688 49.4919 91.1864 46.9884 91.1864 43.0797V35.4122H89.7439V35.476Z" fill="#141416"/>
<path d="M107.43 32.5135H110.944V44.2088C110.994 44.9382 110.884 45.6697 110.622 46.3532C110.359 47.0368 109.95 47.6562 109.423 48.169C108.896 48.6818 108.263 49.0759 107.568 49.3244C106.872 49.5728 106.13 49.6697 105.393 49.6084C101.881 49.6084 99.8069 47.532 99.8069 44.2088V32.5135H103.323V44.6972C103.311 44.964 103.358 45.2301 103.46 45.4774C103.562 45.7247 103.717 45.9474 103.914 46.1304C104.111 46.3134 104.345 46.4524 104.601 46.538C104.857 46.6236 105.128 46.6537 105.397 46.6263C105.661 46.6394 105.924 46.5991 106.171 46.5078C106.419 46.4165 106.644 46.2762 106.835 46.0956C107.025 45.9149 107.176 45.6977 107.279 45.4572C107.381 45.2167 107.433 44.9581 107.43 44.6972V32.5135Z" fill="#141416"/>
<path d="M117.058 55.1407H113.515V32.4828H116.839V33.9481C117.216 33.4027 117.728 32.9619 118.326 32.6679C118.925 32.374 119.589 32.2368 120.257 32.2693C120.849 32.2403 121.441 32.3345 121.994 32.5459C122.548 32.7573 123.05 33.0811 123.468 33.4965C124.353 34.6011 124.785 35.9941 124.679 37.399V44.4186C124.679 47.7541 123.149 49.5176 120.257 49.5176C119.647 49.5467 119.04 49.4302 118.485 49.1782C117.931 48.9262 117.446 48.5459 117.071 48.0695L117.058 48.0511V55.1345V55.1407ZM119.065 35.2931C117.732 35.2931 117.027 36.1804 117.027 37.858V44.0259C117.027 45.6642 117.732 46.5294 119.065 46.5294C120.439 46.5294 121.136 45.6765 121.136 43.9952V37.8592C121.136 36.1559 120.438 35.2931 119.065 35.2931Z" fill="#141416"/>
<path d="M136.408 49.3691H126.216L131.802 35.5018H126.781V32.5135H136.595L131.045 46.3809H136.408V49.3728V49.3691Z" fill="#141416"/>
<path d="M139.763 49.5839C139.565 49.5885 139.367 49.554 139.182 49.4826C138.997 49.4112 138.828 49.3042 138.685 49.1678C138.542 49.0314 138.428 48.8683 138.35 48.688C138.271 48.5077 138.229 48.3138 138.227 48.1174C138.23 47.7178 138.394 47.336 138.682 47.0557C138.971 46.7753 139.359 46.6191 139.763 46.6214C139.966 46.6174 140.167 46.6529 140.355 46.726C140.544 46.7991 140.716 46.9083 140.862 47.0473C141.007 47.1863 141.123 47.3525 141.204 47.5361C141.284 47.7198 141.327 47.9173 141.33 48.1174C141.327 48.316 141.283 48.512 141.202 48.6938C141.121 48.8757 141.005 49.0397 140.859 49.1763C140.713 49.3129 140.541 49.4193 140.353 49.4893C140.165 49.5593 139.964 49.5915 139.763 49.5839Z" fill="#141416"/>
<path d="M150.614 45.6139C150.667 46.151 150.601 46.6931 150.419 47.202C150.237 47.7109 149.945 48.174 149.562 48.5587C149.179 48.9433 148.715 49.24 148.203 49.4278C147.691 49.6155 147.144 49.6898 146.6 49.6453C146.053 49.6948 145.502 49.6242 144.987 49.4387C144.471 49.2531 144.003 48.9572 143.616 48.5719C143.23 48.1867 142.934 47.7218 142.75 47.2104C142.567 46.699 142.5 46.1539 142.554 45.6139V41.126C142.51 40.5909 142.584 40.0527 142.772 39.5489C142.96 39.0452 143.257 38.5881 143.642 38.2099C144.028 37.8316 144.492 37.5413 145.003 37.3593C145.514 37.1772 146.059 37.1078 146.6 37.156C147.138 37.1128 147.68 37.1858 148.187 37.3701C148.694 37.5543 149.154 37.8454 149.536 38.2231C149.918 38.6007 150.212 39.056 150.398 39.5573C150.584 40.0586 150.658 40.5938 150.614 41.126V41.3089H148.074V40.818C148.094 40.62 148.071 40.42 148.004 40.232C147.938 40.0441 147.831 39.8728 147.69 39.7304C147.55 39.5879 147.379 39.4777 147.191 39.4076C147.002 39.3374 146.801 39.3091 146.6 39.3245C146.397 39.308 146.194 39.3355 146.003 39.4049C145.812 39.4744 145.639 39.5842 145.496 39.7266C145.352 39.8691 145.242 40.0408 145.173 40.2297C145.103 40.4186 145.077 40.6202 145.094 40.8205V45.9502C145.071 46.1516 145.094 46.3556 145.161 46.5471C145.228 46.7387 145.338 46.9127 145.483 47.0565C145.628 47.2002 145.803 47.3098 145.996 47.3773C146.19 47.4447 146.396 47.4683 146.6 47.4461C146.801 47.4618 147.003 47.4336 147.192 47.3634C147.381 47.2932 147.551 47.1828 147.692 47.04C147.833 46.8971 147.94 46.7255 148.006 46.5371C148.072 46.3488 148.095 46.1484 148.074 45.9502V45.4924H150.614V45.6139Z" fill="#141416"/>
<path d="M156.039 49.6453C155.492 49.6932 154.942 49.6216 154.427 49.4355C153.912 49.2494 153.444 48.9534 153.058 48.5685C152.672 48.1836 152.376 47.7194 152.192 47.2087C152.008 46.698 151.94 46.1535 151.993 45.6139V41.126C151.968 40.5992 152.048 40.0726 152.23 39.5767C152.411 39.0807 152.69 38.6251 153.05 38.236C153.45 37.8673 153.92 37.5817 154.434 37.3961C154.947 37.2106 155.493 37.129 156.039 37.156C156.577 37.1128 157.118 37.1858 157.625 37.37C158.132 37.5543 158.593 37.8454 158.975 38.223C159.356 38.6007 159.65 39.056 159.837 39.5573C160.023 40.0586 160.096 40.5938 160.052 41.126V45.6139C160.106 46.6996 159.723 47.7623 158.986 48.569C158.593 48.9352 158.13 49.2193 157.623 49.4043C157.117 49.5892 156.578 49.6712 156.039 49.6453ZM156.039 39.3245C155.835 39.304 155.629 39.3286 155.437 39.3967C155.244 39.4647 155.069 39.5744 154.925 39.7178C154.781 39.8611 154.671 40.0345 154.603 40.2253C154.535 40.416 154.511 40.6194 154.533 40.8204V45.9502C154.509 46.1516 154.532 46.3556 154.599 46.5471C154.667 46.7387 154.777 46.9127 154.921 47.0565C155.066 47.2002 155.242 47.3098 155.435 47.3773C155.628 47.4447 155.835 47.4683 156.039 47.4461C156.239 47.4618 156.441 47.4336 156.63 47.3634C156.819 47.2933 156.989 47.183 157.13 47.0403C157.271 46.8977 157.378 46.7262 157.444 46.538C157.51 46.3498 157.533 46.1495 157.512 45.9514V40.8204C157.533 40.6222 157.51 40.4218 157.444 40.2335C157.378 40.0451 157.271 39.8735 157.13 39.7307C156.99 39.5879 156.819 39.4774 156.63 39.4072C156.442 39.337 156.24 39.3088 156.039 39.3245Z" fill="#141416"/>
<path d="M163.909 49.4317H161.369V37.2481H163.784V38.2556C164.003 37.8879 164.322 37.5875 164.704 37.388C165.086 37.1885 165.516 37.0976 165.948 37.1254C166.455 37.0917 166.962 37.2035 167.407 37.4473C167.852 37.6911 168.216 38.0565 168.456 38.4998C168.733 38.0676 169.118 37.7136 169.574 37.4727C170.031 37.2318 170.543 37.1121 171.06 37.1254C172.847 37.1254 173.945 38.1943 173.945 40.6977V49.4305H171.373V40.6376C171.373 39.6301 170.808 39.2938 170.15 39.2938C169.979 39.2885 169.808 39.3197 169.65 39.3853C169.492 39.4508 169.35 39.5493 169.234 39.6738C169.118 39.7984 169.031 39.9463 168.978 40.1073C168.925 40.2683 168.907 40.4387 168.927 40.6069V49.4317H166.356V40.6376C166.356 39.6559 165.791 39.2938 165.133 39.2938C164.961 39.2857 164.79 39.3151 164.63 39.3797C164.471 39.4444 164.328 39.5427 164.211 39.668C164.095 39.7932 164.007 39.9422 163.955 40.1044C163.903 40.2666 163.888 40.4382 163.91 40.6069L163.909 49.4317Z" fill="#141416"/>
<path d="M17.4729 50.5542C16.8733 50.3936 16.5982 49.8231 16.7671 49.0679L18.7586 41.6356L18.691 41.6047C18.5616 41.541 18.427 41.4879 18.2888 41.4462C17.9627 41.3588 17.6245 41.2682 17.3211 41.1869L17.019 41.1059L16.9578 41.0895C16.646 41.006 16.1752 40.8734 15.7363 40.7558C15.2422 40.6235 14.819 40.5101 14.4398 40.4237C14.1787 40.3766 13.9099 40.4289 13.6873 40.5702C12.5414 41.4892 11.3914 42.4236 10.2878 43.3285L10.2713 43.3419L10.1556 43.4379L10.1537 43.445L10.0404 43.5417C8.92688 44.4503 7.77559 45.3894 6.63544 46.3062C6.59195 46.339 6.55174 46.3739 6.51734 46.4016L6.50729 46.4103C6.44603 46.4677 6.37896 46.5187 6.30714 46.5625C6.18041 46.6505 6.03556 46.7098 5.88281 46.7363C5.73005 46.7628 5.5731 46.7557 5.42301 46.7156C5.21656 46.6606 5.0322 46.5433 4.89558 46.3801C4.75896 46.2168 4.67685 46.0158 4.66069 45.805C4.652 45.5879 4.67719 45.3709 4.73535 45.1618C5.0444 44.0084 5.38394 42.7412 5.62569 41.815L5.76417 41.2982C6.43027 38.7883 7.11677 36.1975 7.82671 33.6295C8.14196 32.2561 8.82609 30.9945 9.80698 29.9777C10.7879 28.9609 12.0292 28.2264 13.4001 27.8518C14.0931 27.6564 14.8089 27.5493 15.5303 27.5333C15.7011 27.5501 15.8712 27.4991 16.0034 27.3916C16.1356 27.2841 16.219 27.1288 16.2353 26.9599C16.4829 25.9831 16.7475 25.0097 17.0033 24.0695L17.0078 24.0529C17.3467 22.7881 17.7078 21.4835 18.0227 20.1691C19.1174 15.7782 21.272 11.7215 24.3022 8.34628C25.5948 6.87964 26.9485 5.54498 28.5854 3.99272C29.0311 3.56202 29.4647 3.38728 29.8401 3.48785C30.0662 3.58321 30.2658 3.73143 30.4218 3.91973C30.5778 4.10804 30.6854 4.3308 30.7354 4.56882C32.4407 9.28786 33.1114 14.3071 32.7026 19.2911C32.5689 20.5109 32.3428 21.7184 32.0264 22.9036C31.3646 25.4884 30.6598 28.1188 29.9323 30.7189C29.9013 30.7859 29.8842 30.8585 29.882 30.9323C29.8798 31.0062 29.8925 31.0798 29.9193 31.1489C29.9462 31.218 29.9867 31.2811 30.0384 31.3346C30.0901 31.3882 30.1521 31.431 30.2206 31.4606C31.7511 32.3849 32.9525 33.76 33.6552 35.392C34.2972 37.0286 34.3832 38.8249 33.8999 40.5078C33.2204 43.1208 32.5092 45.7507 31.8188 48.2986L31.8131 48.3199C31.4774 49.5729 31.1125 50.9107 30.7621 52.2182C30.735 52.4748 30.6153 52.7125 30.425 52.8878C30.2348 53.0632 29.9867 53.1644 29.7262 53.173C29.6063 53.1786 29.4861 53.1665 29.3695 53.1372C29.1806 53.0726 29.0108 52.9622 28.8757 52.8161C28.7406 52.67 28.6445 52.4929 28.5962 52.3011C27.4801 49.3149 26.4066 46.5053 25.3155 43.7088C25.2317 43.5234 25.0953 43.3658 24.9229 43.2555C24.5318 43.1418 24.1181 43.0259 23.6217 42.8929C23.2332 42.7888 22.8483 42.6856 22.3854 42.5616L22.1912 42.5096C21.7427 42.3894 21.277 42.271 20.8034 42.1441L18.8023 49.612C18.5979 50.3462 18.0784 50.7165 17.4729 50.5542ZM29.3471 33.3775C29.3385 33.4043 29.3277 33.4303 29.3147 33.4552L29.3087 33.4778C29.2913 33.5089 29.277 33.5417 29.2658 33.5755L27.0844 41.7168C27.0469 41.9469 27.0723 42.1831 27.1581 42.401C27.8727 44.3 28.5899 46.1705 29.3903 48.2437C29.4486 48.3778 29.517 48.5074 29.5949 48.6314L29.6064 48.651L32.127 39.2438C32.1612 39.1026 32.1825 38.9587 32.1909 38.8136L32.1966 38.7923L32.2023 38.771C32.2081 38.7014 32.2137 38.6228 32.226 38.5435C32.2597 37.5096 32.0109 36.4842 31.506 35.5754C31.001 34.6667 30.2585 33.9082 29.3567 33.3801L29.3471 33.3775ZM15.5506 29.616C15.3162 29.6218 15.0826 29.6441 14.8515 29.6827C13.6901 29.8136 12.5994 30.2943 11.7265 31.0601C10.8536 31.826 10.2407 32.8399 9.97051 33.965C9.44701 35.8372 8.94735 37.726 8.46572 39.5522L8.31898 40.0999C8.11951 40.8443 7.91305 41.6148 7.71073 42.3699C7.69183 42.46 7.68187 42.5518 7.68099 42.644L7.67686 42.6594C7.6705 42.6831 7.67463 42.7109 7.67243 42.7382C7.73054 42.6947 7.79344 42.6579 7.85995 42.6284L7.86594 42.63C7.89381 42.6171 7.91592 42.6065 7.93836 42.5948C8.73105 41.9483 9.53165 41.2964 10.3331 40.6459L10.4385 40.5598L10.6488 40.3887C11.4232 39.7594 12.1947 39.1314 12.9632 38.5047C13.1623 38.3228 13.2984 38.0833 13.3523 37.82C13.7329 36.4812 14.0929 35.109 14.442 33.7821L14.4928 33.5925C14.6494 33.0081 14.8384 32.2787 15.021 31.5971L15.5518 29.6163L15.5506 29.616ZM23.1712 29.2541C23.4011 29.3299 23.598 29.4818 23.7286 29.6841C23.8592 29.8865 23.9154 30.1269 23.8877 30.3647C23.8577 30.5766 23.8123 30.7861 23.7519 30.9915L21.3017 40.1355L24.9974 41.1258L30.0397 22.3078C30.734 19.7075 30.9624 17.0043 30.7147 14.3207C30.4554 11.6202 29.9449 8.94769 29.1896 6.33734C29.0859 6.4366 28.9897 6.51754 28.919 6.57991C28.7977 6.67734 28.6857 6.78553 28.5844 6.90315C28.2795 7.24455 27.9671 7.59026 27.6672 7.92788L27.651 7.94514C26.5704 9.13828 25.4589 10.3701 24.46 11.6474C22.5256 14.1458 21.11 17.0002 20.2943 20.0472C19.2745 24.0161 18.1805 28.0414 17.1236 31.933C16.597 33.8743 16.0514 35.8816 15.5207 37.8623L15.339 38.5404L19.2757 39.5952L21.7504 30.3599C21.7618 30.3172 21.7739 30.2722 21.7862 30.2259C21.8097 30.0793 21.8597 29.9382 21.9338 29.8094C22.0322 29.5902 22.2057 29.4129 22.4239 29.3086C22.642 29.2044 22.8908 29.1799 23.1263 29.2395L23.1712 29.2541Z" fill="#141416"/>
<path d="M10.1193 55.6961L12.1505 48.1155C12.2008 47.9074 12.2662 47.7033 12.3463 47.5048C12.446 47.2901 12.6199 47.1182 12.8368 47.0198C13.0538 46.9215 13.2995 46.9031 13.5298 46.9681C13.7638 47.023 13.9699 47.1608 14.1091 47.3554C14.2483 47.5501 14.311 47.788 14.2853 48.0243C14.2659 48.197 14.2309 48.3675 14.1809 48.5338L10 64.137C9.77945 64.8402 9.27504 65.1446 8.67742 64.9528C8.0798 64.7609 7.81938 64.2794 8.009 63.5718C8.73497 60.9839 9.4384 58.3587 10.1193 55.6961Z" fill="#141416"/>
<path d="M19.4281 59.241L21.2316 52.5104C21.2766 52.2758 21.3695 52.0529 21.5047 51.8556C21.6149 51.6647 21.7913 51.52 22.0013 51.4482C22.2114 51.3763 22.441 51.3821 22.648 51.4644C22.8643 51.5185 23.0547 51.6468 23.185 51.8265C23.3153 52.0061 23.3771 52.2255 23.3593 52.4453C23.346 52.7014 23.3002 52.9546 23.2229 53.199L19.5947 66.7397C19.3672 67.4689 18.8463 67.835 18.2407 67.6728C17.6351 67.5105 17.3747 66.9046 17.5646 66.1957L19.4281 59.241Z" fill="#141416"/>
<path d="M13.7389 60.9653L14.7506 57.1898C14.9554 56.4253 15.507 56.0649 16.1125 56.2271C16.2575 56.2813 16.3901 56.3637 16.5026 56.4694C16.6151 56.5751 16.7051 56.702 16.7674 56.8425C16.8297 56.983 16.863 57.1342 16.8653 57.2873C16.8676 57.4404 16.8388 57.5923 16.7807 57.7338L14.7336 65.3736C14.711 65.5295 14.6563 65.679 14.5729 65.8127C14.4895 65.9465 14.3791 66.0617 14.2486 66.1512C14.1181 66.2407 13.9702 66.3026 13.8142 66.3331C13.6582 66.3636 13.4974 66.3619 13.3416 66.3283C12.7428 66.1361 12.468 65.5886 12.6735 64.8216C13.0513 63.5317 13.3911 62.2633 13.7389 60.9653Z" fill="#141416"/>
<path d="M24.6411 23.7707L24.5871 23.7562C23.6483 23.4948 22.8476 22.8814 22.3556 22.0466C21.8637 21.2119 21.7193 20.2217 21.9533 19.2873C22.2193 18.3606 22.8409 17.5755 23.6856 17.0991C24.5303 16.6228 25.5314 16.4929 26.4756 16.7371L26.5284 16.7512C27.0082 16.8844 27.4572 17.1101 27.8497 17.4152C28.2422 17.7203 28.5703 18.0988 28.8152 18.529C29.055 18.9382 29.211 19.3899 29.2744 19.8579C29.3378 20.326 29.3072 20.8013 29.1845 21.2566C29.0523 21.7136 28.8301 22.1397 28.5307 22.5106C28.2313 22.8815 27.8605 23.1897 27.4397 23.4178C26.592 23.8951 25.5867 24.0218 24.6411 23.7707ZM25.9765 18.6908C25.558 18.58 25.1131 18.6378 24.7394 18.8516C24.3658 19.0654 24.0939 19.4177 23.9834 19.8312C23.891 20.2462 23.9633 20.6814 24.1854 21.0468C24.4075 21.4123 24.7625 21.6802 25.1769 21.795C25.6016 21.8956 26.0483 21.8279 26.4214 21.6063C26.6044 21.499 26.7633 21.3559 26.8884 21.1857C27.0136 21.0155 27.1024 20.8217 27.1494 20.616C27.2391 20.2089 27.1675 19.7823 26.9493 19.4241C26.7311 19.0659 26.3829 18.8035 25.9765 18.6908Z" fill="#141416"/>
</svg>
